<svg width="570" height="301" viewBox="0 0 570 301" fill="none" xmlns="http://www.w3.org/2000/svg">
<g clip-path="url(#clip0_284_1028)">
<path d="M450.221 101.061C449.246 101.077 448.316 101.475 447.633 102.17C446.949 102.865 446.566 103.801 446.566 104.776C446.566 105.751 446.949 106.687 447.633 107.382C448.316 108.077 449.246 108.475 450.221 108.491H543.376C543.865 108.5 544.35 108.412 544.804 108.233C545.258 108.054 545.673 107.787 546.024 107.448C546.375 107.108 546.656 106.703 546.85 106.255C547.045 105.807 547.149 105.325 547.157 104.837C547.165 104.349 547.077 103.864 546.897 103.41C546.717 102.956 546.45 102.541 546.11 102.191C545.771 101.84 545.365 101.56 544.917 101.366C544.469 101.172 543.987 101.068 543.498 101.061C543.458 101.06 543.417 101.06 543.376 101.061H450.221Z" fill="#22222B"/>
<path d="M564.502 100.026C564.434 100.094 564.38 100.175 564.343 100.263C564.307 100.352 564.288 100.447 564.288 100.543C564.288 100.639 564.307 100.734 564.343 100.823C564.38 100.912 564.434 100.992 564.502 101.06L567.64 104.199H559.901C559.707 104.199 559.521 104.276 559.384 104.413C559.247 104.55 559.17 104.736 559.17 104.93C559.17 105.124 559.247 105.31 559.384 105.447C559.521 105.584 559.707 105.661 559.901 105.661H567.64L564.502 108.799C564.434 108.867 564.38 108.948 564.343 109.037C564.307 109.125 564.288 109.22 564.288 109.316C564.288 109.412 564.307 109.507 564.343 109.596C564.38 109.685 564.434 109.765 564.502 109.833C564.57 109.901 564.65 109.955 564.739 109.992C564.828 110.029 564.923 110.047 565.019 110.047C565.115 110.047 565.21 110.029 565.299 109.992C565.387 109.955 565.468 109.901 565.536 109.833L569.922 105.447C570.06 105.31 570.137 105.124 570.137 104.93C570.137 104.736 570.06 104.55 569.922 104.413L565.536 100.026C565.468 99.9583 565.387 99.9044 565.299 99.8677C565.21 99.8309 565.115 99.812 565.019 99.812C564.923 99.812 564.828 99.8309 564.739 99.8677C564.65 99.9044 564.57 99.9583 564.502 100.026Z" fill="#BBC3F2"/>
<path d="M429.056 100.026C429.124 100.094 429.178 100.175 429.215 100.263C429.251 100.352 429.27 100.447 429.27 100.543C429.27 100.639 429.251 100.734 429.215 100.823C429.178 100.912 429.124 100.992 429.056 101.06L425.918 104.199H433.657C433.753 104.198 433.848 104.217 433.937 104.254C434.026 104.29 434.107 104.344 434.175 104.412C434.243 104.48 434.297 104.561 434.334 104.649C434.371 104.738 434.39 104.834 434.39 104.93C434.39 105.026 434.371 105.121 434.334 105.21C434.297 105.299 434.243 105.38 434.175 105.447C434.107 105.515 434.026 105.569 433.937 105.606C433.848 105.642 433.753 105.661 433.657 105.661H425.918L429.056 108.799C429.193 108.936 429.27 109.122 429.27 109.316C429.27 109.51 429.193 109.696 429.056 109.833C428.919 109.97 428.733 110.047 428.539 110.047C428.345 110.047 428.159 109.97 428.022 109.833L423.635 105.447C423.498 105.31 423.421 105.124 423.421 104.93C423.421 104.736 423.498 104.55 423.635 104.413L428.022 100.026C428.09 99.9583 428.171 99.9044 428.259 99.8677C428.348 99.8309 428.443 99.812 428.539 99.812C428.635 99.812 428.73 99.8309 428.819 99.8677C428.908 99.9044 428.988 99.9583 429.056 100.026Z" fill="#BBC3F2"/>
<g opacity="0.4">
<path d="M453.983 23.9466C456.188 23.9466 457.975 22.159 457.975 19.9539C457.975 17.7488 456.188 15.9612 453.983 15.9612C451.777 15.9612 449.99 17.7488 449.99 19.9539C449.99 22.159 451.777 23.9466 453.983 23.9466Z" fill="#BBC3F2"/>
<path d="M470.619 23.9467C472.824 23.9467 474.612 22.1591 474.612 19.954C474.612 17.7488 472.824 15.9612 470.619 15.9612C468.414 15.9612 466.626 17.7488 466.626 19.954C466.626 22.1591 468.414 23.9467 470.619 23.9467Z" fill="#BBC3F2"/>
<path d="M487.255 23.9467C489.46 23.9467 491.248 22.1591 491.248 19.954C491.248 17.7488 489.46 15.9612 487.255 15.9612C485.05 15.9612 483.263 17.7488 483.263 19.954C483.263 22.1591 485.05 23.9467 487.255 23.9467Z" fill="#BBC3F2"/>
<path d="M503.892 23.9467C506.097 23.9467 507.884 22.1591 507.884 19.954C507.884 17.7488 506.097 15.9612 503.892 15.9612C501.686 15.9612 499.899 17.7488 499.899 19.954C499.899 22.1591 501.686 23.9467 503.892 23.9467Z" fill="#BBC3F2"/>
<path d="M520.528 23.9467C522.733 23.9467 524.521 22.1591 524.521 19.954C524.521 17.7488 522.733 15.9612 520.528 15.9612C518.323 15.9612 516.535 17.7488 516.535 19.954C516.535 22.1591 518.323 23.9467 520.528 23.9467Z" fill="#BBC3F2"/>
<path d="M537.164 23.9467C539.369 23.9467 541.157 22.1591 541.157 19.954C541.157 17.7488 539.369 15.9612 537.164 15.9612C534.959 15.9612 533.172 17.7488 533.172 19.954C533.172 22.1591 534.959 23.9467 537.164 23.9467Z" fill="#BBC3F2"/>
<path d="M553.8 23.9467C556.005 23.9467 557.793 22.1591 557.793 19.954C557.793 17.7488 556.005 15.9612 553.8 15.9612C551.595 15.9612 549.808 17.7488 549.808 19.954C549.808 22.1591 551.595 23.9467 553.8 23.9467Z" fill="#BBC3F2"/>
<path d="M453.983 36.5903C456.188 36.5903 457.975 34.8027 457.975 32.5976C457.975 30.3925 456.188 28.6049 453.983 28.6049C451.777 28.6049 449.99 30.3925 449.99 32.5976C449.99 34.8027 451.777 36.5903 453.983 36.5903Z" fill="#BBC3F2"/>
<path d="M470.619 36.5903C472.824 36.5903 474.612 34.8027 474.612 32.5976C474.612 30.3925 472.824 28.6049 470.619 28.6049C468.414 28.6049 466.626 30.3925 466.626 32.5976C466.626 34.8027 468.414 36.5903 470.619 36.5903Z" fill="#BBC3F2"/>
<path d="M487.255 36.5903C489.46 36.5903 491.248 34.8027 491.248 32.5976C491.248 30.3925 489.46 28.6049 487.255 28.6049C485.05 28.6049 483.263 30.3925 483.263 32.5976C483.263 34.8027 485.05 36.5903 487.255 36.5903Z" fill="#BBC3F2"/>
<path d="M503.892 36.5903C506.097 36.5903 507.884 34.8027 507.884 32.5976C507.884 30.3925 506.097 28.6049 503.892 28.6049C501.686 28.6049 499.899 30.3925 499.899 32.5976C499.899 34.8027 501.686 36.5903 503.892 36.5903Z" fill="#BBC3F2"/>
<path d="M520.528 36.5903C522.733 36.5903 524.521 34.8027 524.521 32.5976C524.521 30.3925 522.733 28.6049 520.528 28.6049C518.323 28.6049 516.535 30.3925 516.535 32.5976C516.535 34.8027 518.323 36.5903 520.528 36.5903Z" fill="#BBC3F2"/>
<path d="M537.164 36.5903C539.369 36.5903 541.157 34.8027 541.157 32.5976C541.157 30.3925 539.369 28.6049 537.164 28.6049C534.959 28.6049 533.172 30.3925 533.172 32.5976C533.172 34.8027 534.959 36.5903 537.164 36.5903Z" fill="#BBC3F2"/>
<path d="M553.8 36.5903C556.005 36.5903 557.793 34.8027 557.793 32.5976C557.793 30.3925 556.005 28.6049 553.8 28.6049C551.595 28.6049 549.808 30.3925 549.808 32.5976C549.808 34.8027 551.595 36.5903 553.8 36.5903Z" fill="#BBC3F2"/>
<path d="M453.983 49.2337C456.188 49.2337 457.975 47.4461 457.975 45.241C457.975 43.0359 456.188 41.2483 453.983 41.2483C451.777 41.2483 449.99 43.0359 449.99 45.241C449.99 47.4461 451.777 49.2337 453.983 49.2337Z" fill="#BBC3F2"/>
<path d="M470.619 49.2337C472.824 49.2337 474.612 47.4461 474.612 45.241C474.612 43.0359 472.824 41.2483 470.619 41.2483C468.414 41.2483 466.626 43.0359 466.626 45.241C466.626 47.4461 468.414 49.2337 470.619 49.2337Z" fill="#BBC3F2"/>
<path d="M487.255 49.2337C489.46 49.2337 491.248 47.4461 491.248 45.241C491.248 43.0359 489.46 41.2483 487.255 41.2483C485.05 41.2483 483.263 43.0359 483.263 45.241C483.263 47.4461 485.05 49.2337 487.255 49.2337Z" fill="#BBC3F2"/>
<path d="M503.892 49.2337C506.097 49.2337 507.884 47.4461 507.884 45.241C507.884 43.0359 506.097 41.2483 503.892 41.2483C501.686 41.2483 499.899 43.0359 499.899 45.241C499.899 47.4461 501.686 49.2337 503.892 49.2337Z" fill="#BBC3F2"/>
<path d="M520.528 49.2337C522.733 49.2337 524.521 47.4461 524.521 45.241C524.521 43.0359 522.733 41.2483 520.528 41.2483C518.323 41.2483 516.535 43.0359 516.535 45.241C516.535 47.4461 518.323 49.2337 520.528 49.2337Z" fill="#BBC3F2"/>
<path d="M537.164 49.2337C539.369 49.2337 541.157 47.4461 541.157 45.241C541.157 43.0359 539.369 41.2483 537.164 41.2483C534.959 41.2483 533.172 43.0359 533.172 45.241C533.172 47.4461 534.959 49.2337 537.164 49.2337Z" fill="#BBC3F2"/>
<path d="M553.8 49.2337C556.005 49.2337 557.793 47.4461 557.793 45.241C557.793 43.0359 556.005 41.2483 553.8 41.2483C551.595 41.2483 549.808 43.0359 549.808 45.241C549.808 47.4461 551.595 49.2337 553.8 49.2337Z" fill="#BBC3F2"/>
<path d="M453.983 61.8773C456.188 61.8773 457.975 60.0897 457.975 57.8846C457.975 55.6795 456.188 53.8919 453.983 53.8919C451.777 53.8919 449.99 55.6795 449.99 57.8846C449.99 60.0897 451.777 61.8773 453.983 61.8773Z" fill="#BBC3F2"/>
<path d="M470.619 61.8773C472.824 61.8773 474.612 60.0897 474.612 57.8846C474.612 55.6795 472.824 53.8919 470.619 53.8919C468.414 53.8919 466.626 55.6795 466.626 57.8846C466.626 60.0897 468.414 61.8773 470.619 61.8773Z" fill="#BBC3F2"/>
<path d="M453.983 74.5209C456.188 74.5209 457.975 72.7333 457.975 70.5282C457.975 68.3231 456.188 66.5355 453.983 66.5355C451.777 66.5355 449.99 68.3231 449.99 70.5282C449.99 72.7333 451.777 74.5209 453.983 74.5209Z" fill="#BBC3F2"/>
<path d="M470.619 74.5209C472.824 74.5209 474.612 72.7333 474.612 70.5282C474.612 68.3231 472.824 66.5355 470.619 66.5355C468.414 66.5355 466.626 68.3231 466.626 70.5282C466.626 72.7333 468.414 74.5209 470.619 74.5209Z" fill="#BBC3F2"/>
<path d="M487.255 74.5209C489.46 74.5209 491.248 72.7333 491.248 70.5282C491.248 68.3231 489.46 66.5355 487.255 66.5355C485.05 66.5355 483.263 68.3231 483.263 70.5282C483.263 72.7333 485.05 74.5209 487.255 74.5209Z" fill="#BBC3F2"/>
<path d="M487.255 61.8773C489.46 61.8773 491.248 60.0897 491.248 57.8846C491.248 55.6795 489.46 53.8919 487.255 53.8919C485.05 53.8919 483.263 55.6795 483.263 57.8846C483.263 60.0897 485.05 61.8773 487.255 61.8773Z" fill="#BBC3F2"/>
<path d="M503.892 61.8773C506.097 61.8773 507.884 60.0897 507.884 57.8846C507.884 55.6795 506.097 53.8919 503.892 53.8919C501.686 53.8919 499.899 55.6795 499.899 57.8846C499.899 60.0897 501.686 61.8773 503.892 61.8773Z" fill="#BBC3F2"/>
<path d="M520.528 61.8773C522.733 61.8773 524.521 60.0897 524.521 57.8846C524.521 55.6795 522.733 53.8919 520.528 53.8919C518.323 53.8919 516.535 55.6795 516.535 57.8846C516.535 60.0897 518.323 61.8773 520.528 61.8773Z" fill="#BBC3F2"/>
<path d="M537.164 61.8773C539.369 61.8773 541.157 60.0897 541.157 57.8846C541.157 55.6795 539.369 53.8919 537.164 53.8919C534.959 53.8919 533.172 55.6795 533.172 57.8846C533.172 60.0897 534.959 61.8773 537.164 61.8773Z" fill="#BBC3F2"/>
<path d="M553.8 61.8773C556.005 61.8773 557.793 60.0897 557.793 57.8846C557.793 55.6795 556.005 53.8919 553.8 53.8919C551.595 53.8919 549.808 55.6795 549.808 57.8846C549.808 60.0897 551.595 61.8773 553.8 61.8773Z" fill="#BBC3F2"/>
</g>
<path d="M461.609 127.656H527.775C528.506 127.657 529.207 127.948 529.724 128.465C530.24 128.981 530.531 129.682 530.532 130.413V199.323C530.531 200.054 530.24 200.754 529.724 201.271C529.207 201.788 528.506 202.079 527.775 202.08H461.609C460.878 202.079 460.177 201.788 459.66 201.271C459.143 200.754 458.853 200.054 458.852 199.323V130.413C458.853 129.682 459.143 128.981 459.66 128.465C460.177 127.948 460.878 127.657 461.609 127.656ZM527.775 200.977C528.214 200.976 528.634 200.802 528.944 200.492C529.254 200.182 529.429 199.761 529.429 199.323V130.413C529.429 129.974 529.254 129.554 528.944 129.244C528.634 128.934 528.214 128.759 527.775 128.759H461.609C461.17 128.759 460.75 128.934 460.44 129.244C460.129 129.554 459.955 129.974 459.954 130.413V199.323C459.955 199.761 460.129 200.182 460.44 200.492C460.75 200.802 461.17 200.976 461.609 200.977H527.775Z" fill="#22222B"/>
<path d="M513.676 187.869C514.173 187.869 514.649 187.672 515 187.321C515.351 186.97 515.548 186.494 515.548 185.998C515.548 185.501 515.351 185.025 515 184.674C514.649 184.323 514.173 184.126 513.676 184.126H475.708C475.211 184.126 474.735 184.323 474.384 184.674C474.033 185.025 473.836 185.501 473.836 185.998C473.836 186.494 474.033 186.97 474.384 187.321C474.735 187.672 475.211 187.869 475.708 187.869H513.676Z" fill="#BBC3F2"/>
<path d="M513.676 176.842C513.923 176.842 514.166 176.794 514.394 176.7C514.621 176.606 514.828 176.468 515.002 176.295C515.176 176.121 515.315 175.914 515.409 175.687C515.503 175.46 515.552 175.216 515.552 174.97C515.552 174.724 515.503 174.48 515.409 174.253C515.315 174.025 515.176 173.819 515.002 173.645C514.828 173.471 514.621 173.333 514.394 173.24C514.166 173.146 513.923 173.098 513.676 173.098H475.708C475.461 173.098 475.218 173.146 474.99 173.24C474.763 173.333 474.556 173.471 474.382 173.645C474.208 173.819 474.069 174.025 473.975 174.253C473.881 174.48 473.832 174.724 473.832 174.97C473.832 175.216 473.881 175.46 473.975 175.687C474.069 175.914 474.208 176.121 474.382 176.295C474.556 176.468 474.763 176.606 474.99 176.7C475.218 176.794 475.461 176.842 475.708 176.842H513.676Z" fill="#BBC3F2"/>
<path d="M494.692 141.866C497.022 141.866 499.3 142.557 501.237 143.852C503.175 145.147 504.685 146.987 505.577 149.139C506.468 151.292 506.702 153.661 506.247 155.946C505.792 158.232 504.67 160.331 503.023 161.979C501.375 163.626 499.276 164.749 496.99 165.203C494.705 165.658 492.336 165.424 490.183 164.533C488.031 163.641 486.19 162.131 484.896 160.193C483.601 158.256 482.91 155.978 482.91 153.648C482.914 150.524 484.156 147.53 486.365 145.321C488.574 143.112 491.568 141.87 494.692 141.866Z" fill="#BBC3F2"/>
<path d="M392.155 241.524C387.796 241.524 383.535 240.231 379.911 237.809C376.286 235.388 373.461 231.946 371.793 227.918C370.125 223.891 369.689 219.46 370.539 215.184C371.389 210.909 373.488 206.982 376.571 203.899C379.653 200.817 383.58 198.718 387.856 197.868C392.131 197.017 396.562 197.454 400.59 199.122C404.617 200.79 408.059 203.615 410.481 207.239C412.903 210.864 414.195 215.125 414.195 219.484C414.189 225.327 411.864 230.929 407.733 235.061C403.601 239.193 397.999 241.517 392.155 241.524ZM392.155 198.694C388.043 198.694 384.024 199.913 380.605 202.198C377.186 204.482 374.521 207.729 372.948 211.528C371.374 215.327 370.962 219.507 371.765 223.54C372.567 227.573 374.547 231.277 377.455 234.185C380.362 237.092 384.067 239.072 388.099 239.875C392.132 240.677 396.313 240.265 400.111 238.692C403.91 237.118 407.157 234.453 409.442 231.034C411.726 227.615 412.946 223.596 412.946 219.484C412.939 213.972 410.747 208.688 406.849 204.79C402.952 200.892 397.667 198.7 392.155 198.694Z" fill="#22222B"/>
<path d="M400.606 217.372H394.268V211.034C394.268 210.474 394.046 209.937 393.65 209.54C393.253 209.144 392.716 208.922 392.156 208.922C391.596 208.922 391.058 209.144 390.662 209.54C390.266 209.937 390.043 210.474 390.043 211.034V217.372H383.706C383.146 217.372 382.608 217.594 382.212 217.99C381.816 218.386 381.594 218.924 381.594 219.484C381.594 220.044 381.816 220.582 382.212 220.978C382.608 221.374 383.146 221.596 383.706 221.596H390.043V227.934C390.043 228.494 390.266 229.031 390.662 229.428C391.058 229.824 391.596 230.046 392.156 230.046C392.716 230.046 393.253 229.824 393.65 229.428C394.046 229.031 394.268 228.494 394.268 227.934V221.596H400.606C401.166 221.596 401.703 221.374 402.099 220.978C402.496 220.582 402.718 220.044 402.718 219.484C402.718 218.924 402.496 218.386 402.099 217.99C401.703 217.594 401.166 217.372 400.606 217.372Z" fill="#BBC3F2"/>
<g opacity="0.4">
<path d="M13.4151 244.23C15.1488 244.23 16.5542 242.824 16.5542 241.09C16.5542 239.357 15.1488 237.951 13.4151 237.951C11.6813 237.951 10.2759 239.357 10.2759 241.09C10.2759 242.824 11.6813 244.23 13.4151 244.23Z" fill="#BBC3F2"/>
<path d="M13.4151 231.15C15.1488 231.15 16.5542 229.744 16.5542 228.011C16.5542 226.277 15.1488 224.872 13.4151 224.872C11.6813 224.872 10.2759 226.277 10.2759 228.011C10.2759 229.744 11.6813 231.15 13.4151 231.15Z" fill="#BBC3F2"/>
<path d="M13.4151 218.07C15.1488 218.07 16.5542 216.665 16.5542 214.931C16.5542 213.197 15.1488 211.792 13.4151 211.792C11.6813 211.792 10.2759 213.197 10.2759 214.931C10.2759 216.665 11.6813 218.07 13.4151 218.07Z" fill="#BBC3F2"/>
<path d="M13.4151 204.99C15.1488 204.99 16.5542 203.585 16.5542 201.851C16.5542 200.117 15.1488 198.712 13.4151 198.712C11.6813 198.712 10.2759 200.117 10.2759 201.851C10.2759 203.585 11.6813 204.99 13.4151 204.99Z" fill="#BBC3F2"/>
<path d="M13.4151 191.91C15.1488 191.91 16.5542 190.505 16.5542 188.771C16.5542 187.037 15.1488 185.632 13.4151 185.632C11.6813 185.632 10.2759 187.037 10.2759 188.771C10.2759 190.505 11.6813 191.91 13.4151 191.91Z" fill="#BBC3F2"/>
<path d="M13.4151 178.83C15.1488 178.83 16.5542 177.425 16.5542 175.691C16.5542 173.957 15.1488 172.552 13.4151 172.552C11.6813 172.552 10.2759 173.957 10.2759 175.691C10.2759 177.425 11.6813 178.83 13.4151 178.83Z" fill="#BBC3F2"/>
<path d="M13.4151 165.75C15.1488 165.75 16.5542 164.345 16.5542 162.611C16.5542 160.878 15.1488 159.472 13.4151 159.472C11.6813 159.472 10.2759 160.878 10.2759 162.611C10.2759 164.345 11.6813 165.75 13.4151 165.75Z" fill="#BBC3F2"/>
<path d="M23.3557 244.23C25.0894 244.23 26.4948 242.824 26.4948 241.09C26.4948 239.357 25.0894 237.951 23.3557 237.951C21.6219 237.951 20.2165 239.357 20.2165 241.09C20.2165 242.824 21.6219 244.23 23.3557 244.23Z" fill="#BBC3F2"/>
<path d="M23.3557 231.15C25.0894 231.15 26.4948 229.744 26.4948 228.011C26.4948 226.277 25.0894 224.872 23.3557 224.872C21.6219 224.872 20.2165 226.277 20.2165 228.011C20.2165 229.744 21.6219 231.15 23.3557 231.15Z" fill="#BBC3F2"/>
<path d="M23.3557 218.07C25.0894 218.07 26.4948 216.665 26.4948 214.931C26.4948 213.197 25.0894 211.792 23.3557 211.792C21.6219 211.792 20.2165 213.197 20.2165 214.931C20.2165 216.665 21.6219 218.07 23.3557 218.07Z" fill="#BBC3F2"/>
<path d="M23.3557 204.99C25.0894 204.99 26.4948 203.585 26.4948 201.851C26.4948 200.117 25.0894 198.712 23.3557 198.712C21.6219 198.712 20.2165 200.117 20.2165 201.851C20.2165 203.585 21.6219 204.99 23.3557 204.99Z" fill="#BBC3F2"/>
<path d="M23.3557 191.91C25.0894 191.91 26.4948 190.505 26.4948 188.771C26.4948 187.037 25.0894 185.632 23.3557 185.632C21.6219 185.632 20.2165 187.037 20.2165 188.771C20.2165 190.505 21.6219 191.91 23.3557 191.91Z" fill="#BBC3F2"/>
<path d="M23.3557 178.83C25.0894 178.83 26.4948 177.425 26.4948 175.691C26.4948 173.957 25.0894 172.552 23.3557 172.552C21.6219 172.552 20.2165 173.957 20.2165 175.691C20.2165 177.425 21.6219 178.83 23.3557 178.83Z" fill="#BBC3F2"/>
<path d="M23.3557 165.75C25.0894 165.75 26.4948 164.345 26.4948 162.611C26.4948 160.878 25.0894 159.472 23.3557 159.472C21.6219 159.472 20.2165 160.878 20.2165 162.611C20.2165 164.345 21.6219 165.75 23.3557 165.75Z" fill="#BBC3F2"/>
<path d="M33.2965 244.23C35.0302 244.23 36.4356 242.824 36.4356 241.09C36.4356 239.357 35.0302 237.951 33.2965 237.951C31.5627 237.951 30.1573 239.357 30.1573 241.09C30.1573 242.824 31.5627 244.23 33.2965 244.23Z" fill="#BBC3F2"/>
<path d="M33.2965 231.15C35.0302 231.15 36.4356 229.744 36.4356 228.011C36.4356 226.277 35.0302 224.872 33.2965 224.872C31.5627 224.872 30.1573 226.277 30.1573 228.011C30.1573 229.744 31.5627 231.15 33.2965 231.15Z" fill="#BBC3F2"/>
<path d="M33.2965 218.07C35.0302 218.07 36.4356 216.665 36.4356 214.931C36.4356 213.197 35.0302 211.792 33.2965 211.792C31.5627 211.792 30.1573 213.197 30.1573 214.931C30.1573 216.665 31.5627 218.07 33.2965 218.07Z" fill="#BBC3F2"/>
<path d="M33.2965 204.99C35.0302 204.99 36.4356 203.585 36.4356 201.851C36.4356 200.117 35.0302 198.712 33.2965 198.712C31.5627 198.712 30.1573 200.117 30.1573 201.851C30.1573 203.585 31.5627 204.99 33.2965 204.99Z" fill="#BBC3F2"/>
<path d="M33.2965 191.91C35.0302 191.91 36.4356 190.505 36.4356 188.771C36.4356 187.037 35.0302 185.632 33.2965 185.632C31.5627 185.632 30.1573 187.037 30.1573 188.771C30.1573 190.505 31.5627 191.91 33.2965 191.91Z" fill="#BBC3F2"/>
<path d="M33.2965 178.83C35.0302 178.83 36.4356 177.425 36.4356 175.691C36.4356 173.957 35.0302 172.552 33.2965 172.552C31.5627 172.552 30.1573 173.957 30.1573 175.691C30.1573 177.425 31.5627 178.83 33.2965 178.83Z" fill="#BBC3F2"/>
<path d="M33.2965 165.75C35.0302 165.75 36.4356 164.345 36.4356 162.611C36.4356 160.878 35.0302 159.472 33.2965 159.472C31.5627 159.472 30.1573 160.878 30.1573 162.611C30.1573 164.345 31.5627 165.75 33.2965 165.75Z" fill="#BBC3F2"/>
<path d="M43.2371 244.23C44.9708 244.23 46.3762 242.824 46.3762 241.09C46.3762 239.357 44.9708 237.951 43.2371 237.951C41.5034 237.951 40.0979 239.357 40.0979 241.09C40.0979 242.824 41.5034 244.23 43.2371 244.23Z" fill="#BBC3F2"/>
<path d="M43.2371 231.15C44.9708 231.15 46.3762 229.744 46.3762 228.011C46.3762 226.277 44.9708 224.872 43.2371 224.872C41.5034 224.872 40.0979 226.277 40.0979 228.011C40.0979 229.744 41.5034 231.15 43.2371 231.15Z" fill="#BBC3F2"/>
<path d="M53.1779 244.23C54.9117 244.23 56.3171 242.824 56.3171 241.09C56.3171 239.357 54.9117 237.951 53.1779 237.951C51.4442 237.951 50.0388 239.357 50.0388 241.09C50.0388 242.824 51.4442 244.23 53.1779 244.23Z" fill="#BBC3F2"/>
<path d="M53.1779 231.15C54.9117 231.15 56.3171 229.744 56.3171 228.011C56.3171 226.277 54.9117 224.872 53.1779 224.872C51.4442 224.872 50.0388 226.277 50.0388 228.011C50.0388 229.744 51.4442 231.15 53.1779 231.15Z" fill="#BBC3F2"/>
<path d="M53.1779 218.07C54.9117 218.07 56.3171 216.665 56.3171 214.931C56.3171 213.197 54.9117 211.792 53.1779 211.792C51.4442 211.792 50.0388 213.197 50.0388 214.931C50.0388 216.665 51.4442 218.07 53.1779 218.07Z" fill="#BBC3F2"/>
<path d="M43.2371 218.07C44.9708 218.07 46.3762 216.665 46.3762 214.931C46.3762 213.197 44.9708 211.792 43.2371 211.792C41.5034 211.792 40.0979 213.197 40.0979 214.931C40.0979 216.665 41.5034 218.07 43.2371 218.07Z" fill="#BBC3F2"/>
<path d="M43.2371 204.99C44.9708 204.99 46.3762 203.585 46.3762 201.851C46.3762 200.117 44.9708 198.712 43.2371 198.712C41.5034 198.712 40.0979 200.117 40.0979 201.851C40.0979 203.585 41.5034 204.99 43.2371 204.99Z" fill="#BBC3F2"/>
<path d="M43.2371 191.91C44.9708 191.91 46.3762 190.505 46.3762 188.771C46.3762 187.037 44.9708 185.632 43.2371 185.632C41.5034 185.632 40.0979 187.037 40.0979 188.771C40.0979 190.505 41.5034 191.91 43.2371 191.91Z" fill="#BBC3F2"/>
<path d="M43.2371 178.83C44.9708 178.83 46.3762 177.425 46.3762 175.691C46.3762 173.957 44.9708 172.552 43.2371 172.552C41.5034 172.552 40.0979 173.957 40.0979 175.691C40.0979 177.425 41.5034 178.83 43.2371 178.83Z" fill="#BBC3F2"/>
<path d="M43.2371 165.75C44.9708 165.75 46.3762 164.345 46.3762 162.611C46.3762 160.878 44.9708 159.472 43.2371 159.472C41.5034 159.472 40.0979 160.878 40.0979 162.611C40.0979 164.345 41.5034 165.75 43.2371 165.75Z" fill="#BBC3F2"/>
</g>
<path d="M290.462 27.5409H81.9246C80.9004 27.5419 79.9184 27.9493 79.1942 28.6735C78.47 29.3977 78.0627 30.3797 78.0616 31.4039V209.725C78.0627 210.749 78.47 211.731 79.1942 212.455C79.9184 213.179 80.9004 213.587 81.9246 213.588H290.462C291.487 213.587 292.469 213.179 293.193 212.455C293.917 211.731 294.324 210.749 294.325 209.725V31.4039C294.324 30.3797 293.917 29.3977 293.193 28.6735C292.469 27.9493 291.487 27.5419 290.462 27.5409ZM292.777 209.725C292.777 210.339 292.533 210.929 292.099 211.364C291.665 211.799 291.077 212.045 290.462 212.047H81.9246C81.3097 212.046 80.7204 211.801 80.2863 211.365C79.8522 210.93 79.6088 210.34 79.6097 209.725V31.4039C79.6088 30.789 79.8522 30.1989 80.2863 29.7634C80.7204 29.3279 81.3097 29.0827 81.9246 29.0817H290.462C291.077 29.084 291.665 29.3295 292.099 29.7648C292.533 30.2 292.777 30.7894 292.777 31.4039V209.725Z" fill="#22222B"/>
<path d="M130.061 181.881C130.061 182.156 130.053 182.43 130.039 182.698C129.829 186.722 128.082 190.513 125.159 193.287C122.236 196.061 118.36 197.608 114.33 197.608C110.3 197.608 106.424 196.061 103.501 193.287C100.578 190.513 98.8313 186.722 98.621 182.698C98.6066 182.43 98.5994 182.156 98.5994 181.881C98.5981 179.814 99.004 177.767 99.7939 175.858C100.584 173.948 101.742 172.213 103.203 170.751C104.664 169.289 106.399 168.13 108.308 167.339C110.217 166.547 112.263 166.14 114.33 166.14C116.397 166.14 118.443 166.547 120.352 167.339C122.261 168.13 123.996 169.289 125.457 170.751C126.917 172.213 128.076 173.948 128.866 175.858C129.656 177.767 130.062 179.814 130.061 181.881Z" fill="#BBC3F2"/>
<path d="M274.258 171.391H150.656C149.961 171.392 149.295 171.669 148.804 172.161C148.313 172.652 148.038 173.319 148.038 174.013C148.038 174.708 148.313 175.375 148.804 175.866C149.295 176.358 149.961 176.635 150.656 176.636H274.258C274.953 176.635 275.619 176.358 276.11 175.866C276.601 175.375 276.876 174.708 276.876 174.013C276.876 173.319 276.601 172.652 276.11 172.161C275.619 171.669 274.953 171.392 274.258 171.391Z" fill="#22222B"/>
<path d="M203.841 187.125H150.656C149.962 187.125 149.295 187.401 148.804 187.892C148.313 188.383 148.037 189.05 148.037 189.744C148.037 190.439 148.313 191.105 148.804 191.596C149.295 192.087 149.962 192.363 150.656 192.363H203.841C204.536 192.363 205.202 192.087 205.693 191.596C206.184 191.105 206.46 190.439 206.46 189.744C206.46 189.05 206.184 188.383 205.693 187.892C205.202 187.401 204.536 187.125 203.841 187.125Z" fill="#BBC3F2"/>
<path d="M340.007 152.872H131.47C130.054 152.87 128.696 152.307 127.694 151.305C126.693 150.304 126.13 148.946 126.128 147.53V56.0133C126.13 54.5971 126.693 53.2393 127.695 52.2378C128.696 51.2364 130.054 50.673 131.47 50.6713H340.007C341.423 50.673 342.781 51.2364 343.782 52.2378C344.783 53.2393 345.347 54.5971 345.348 56.0133V147.53C345.347 148.946 344.783 150.304 343.782 151.305C342.781 152.307 341.423 152.87 340.007 152.872ZM131.47 52.5459C130.551 52.5469 129.669 52.9126 129.019 53.5627C128.369 54.2127 128.004 55.0941 128.003 56.0133V147.53C128.004 148.449 128.369 149.33 129.019 149.98C129.669 150.63 130.551 150.996 131.47 150.997H340.007C340.926 150.996 341.807 150.63 342.457 149.98C343.107 149.33 343.473 148.449 343.474 147.53V56.0133C343.473 55.0941 343.107 54.2127 342.457 53.5627C341.807 52.9126 340.926 52.5469 340.007 52.5459H131.47Z" fill="#BBC3F2"/>
<path d="M173.939 84.0503C173.243 84.0503 172.576 84.3265 172.085 84.8182C171.593 85.3099 171.317 85.9768 171.317 86.6721C171.317 87.3674 171.593 88.0343 172.085 88.526C172.576 89.0177 173.243 89.2939 173.939 89.2939H297.538C298.233 89.2939 298.9 89.0177 299.392 88.526C299.883 88.0343 300.16 87.3674 300.16 86.6721C300.16 85.9768 299.883 85.3099 299.392 84.8182C298.9 84.3265 298.233 84.0503 297.538 84.0503H173.939Z" fill="#BBC3F2"/>
<path d="M173.939 99.2419C173.243 99.2419 172.576 99.5181 172.085 100.01C171.593 100.501 171.317 101.168 171.317 101.864C171.317 102.559 171.593 103.226 172.085 103.718C172.576 104.209 173.243 104.485 173.939 104.485H297.538C298.233 104.484 298.898 104.208 299.389 103.716C299.88 103.225 300.156 102.558 300.156 101.864C300.156 101.169 299.88 100.503 299.389 100.011C298.898 99.5196 298.233 99.243 297.538 99.2419H173.939Z" fill="#BBC3F2"/>
<path d="M173.939 114.249C173.243 114.249 172.576 114.526 172.085 115.017C171.593 115.509 171.317 116.176 171.317 116.871C171.317 117.566 171.593 118.233 172.085 118.725C172.576 119.217 173.243 119.493 173.939 119.493H227.124C227.818 119.492 228.484 119.215 228.975 118.724C229.466 118.232 229.742 117.566 229.742 116.871C229.742 116.176 229.466 115.51 228.975 115.019C228.484 114.527 227.818 114.25 227.124 114.249H173.939Z" fill="#BBC3F2"/>
<path d="M374.389 191.645L353.444 162.085L360.224 163.498C360.345 163.523 360.469 163.524 360.59 163.501C360.711 163.478 360.826 163.432 360.929 163.364C361.033 163.297 361.121 163.209 361.191 163.108C361.26 163.006 361.309 162.891 361.334 162.771C361.359 162.65 361.36 162.526 361.337 162.405C361.314 162.284 361.267 162.168 361.2 162.065C361.132 161.962 361.045 161.874 360.943 161.804C360.842 161.735 360.727 161.686 360.607 161.661L350.503 159.558L349.139 169.787C349.122 169.909 349.13 170.034 349.161 170.153C349.193 170.272 349.247 170.384 349.322 170.482C349.397 170.58 349.491 170.663 349.597 170.725C349.704 170.787 349.822 170.827 349.944 170.843C350.067 170.86 350.191 170.852 350.31 170.82C350.429 170.788 350.541 170.733 350.639 170.658C350.737 170.583 350.819 170.489 350.881 170.382C350.942 170.275 350.982 170.157 350.998 170.035L351.913 163.166L372.859 192.729C372.931 192.829 373.021 192.914 373.125 192.98C373.229 193.045 373.345 193.09 373.467 193.11C373.588 193.131 373.712 193.128 373.832 193.1C373.952 193.073 374.066 193.022 374.166 192.951C374.266 192.88 374.352 192.79 374.417 192.686C374.483 192.582 374.527 192.466 374.548 192.344C374.569 192.223 374.565 192.099 374.538 191.979C374.51 191.859 374.46 191.745 374.389 191.645V191.645Z" fill="#BBC3F2"/>
<path d="M260.631 277.679H111.757C111.026 277.678 110.325 277.387 109.808 276.87C109.291 276.353 109 275.653 109 274.922V237.992C109 237.261 109.291 236.561 109.808 236.044C110.325 235.527 111.026 235.236 111.757 235.235H260.631C261.362 235.236 262.062 235.527 262.579 236.044C263.096 236.561 263.387 237.261 263.388 237.992V274.922C263.387 275.653 263.096 276.353 262.579 276.87C262.062 277.387 261.362 277.678 260.631 277.679ZM111.757 236.338C111.318 236.339 110.898 236.513 110.587 236.823C110.277 237.133 110.103 237.554 110.102 237.992V274.922C110.103 275.36 110.277 275.781 110.587 276.091C110.898 276.401 111.318 276.575 111.757 276.576H260.631C261.069 276.575 261.49 276.401 261.8 276.091C262.11 275.781 262.284 275.36 262.285 274.922V237.992C262.284 237.554 262.11 237.133 261.8 236.823C261.49 236.513 261.069 236.339 260.631 236.338H111.757Z" fill="#22222B"/>
<path d="M134.888 266.27C141.091 266.27 146.119 261.242 146.119 255.04C146.119 248.838 141.091 243.81 134.888 243.81C128.686 243.81 123.658 248.838 123.658 255.04C123.658 261.242 128.686 266.27 134.888 266.27Z" fill="#BBC3F2"/>
<path d="M160.825 247.553C160.579 247.553 160.335 247.601 160.108 247.695C159.88 247.789 159.673 247.926 159.499 248.1C159.325 248.274 159.187 248.481 159.092 248.708C158.998 248.935 158.95 249.179 158.95 249.425C158.95 249.671 158.998 249.915 159.092 250.142C159.187 250.369 159.325 250.576 159.499 250.75C159.673 250.924 159.88 251.061 160.108 251.155C160.335 251.249 160.579 251.297 160.825 251.297H249.063C249.559 251.297 250.035 251.099 250.386 250.748C250.737 250.397 250.934 249.921 250.934 249.425C250.934 248.929 250.737 248.452 250.386 248.101C250.035 247.75 249.559 247.553 249.063 247.553H160.825Z" fill="#BBC3F2"/>
<path d="M160.825 258.783C160.579 258.783 160.335 258.831 160.108 258.925C159.88 259.019 159.673 259.156 159.499 259.33C159.325 259.504 159.187 259.711 159.092 259.938C158.998 260.165 158.95 260.409 158.95 260.655C158.95 260.901 158.998 261.145 159.092 261.372C159.187 261.599 159.325 261.806 159.499 261.98C159.673 262.154 159.88 262.291 160.108 262.385C160.335 262.479 160.579 262.527 160.825 262.527H198.794C199.29 262.527 199.766 262.33 200.117 261.979C200.468 261.628 200.666 261.151 200.666 260.655C200.666 260.159 200.468 259.683 200.117 259.332C199.766 258.981 199.29 258.783 198.794 258.783H160.825Z" fill="#BBC3F2"/>
</g>
<defs>
<clipPath id="clip0_284_1028">
<rect width="570" height="301" fill="white"/>
</clipPath>
</defs>
</svg>
