<svg width="582" height="443" viewBox="0 0 582 443" fill="none" xmlns="http://www.w3.org/2000/svg">
<g clip-path="url(#clip0_493_2291)">
<path d="M207.04 103.033C206.798 103.033 206.565 102.941 206.389 102.776C206.212 102.611 206.105 102.386 206.088 102.145C205.463 93.6579 201.657 85.7202 195.431 79.9197C189.205 74.1192 181.018 70.8837 172.508 70.8608C171.49 70.8608 170.42 70.9126 169.328 71.0148C169.146 71.0319 168.962 70.9961 168.799 70.9117C168.636 70.8272 168.501 70.6977 168.41 70.5385C164.501 63.6967 158.664 58.1574 151.627 54.6122C144.59 51.0669 136.665 49.6725 128.84 50.6031C121.016 51.5337 113.638 54.7481 107.629 59.845C101.62 64.942 97.2447 71.6958 95.0497 79.2636C94.9917 79.4664 94.868 79.6442 94.6979 79.7689C94.5278 79.8937 94.3211 79.9584 94.1103 79.9528L93.8563 79.9451C93.7242 79.9407 93.5922 79.936 93.459 79.936C87.0046 79.9562 80.7512 82.1826 75.7363 86.2459C70.7214 90.3091 67.2465 95.9649 65.8882 102.275C65.843 102.489 65.7255 102.681 65.5553 102.82C65.3851 102.958 65.1726 103.033 64.9535 103.033H0.955188C0.702272 103.032 0.459946 102.931 0.281344 102.752C0.102742 102.573 0.00244141 102.331 0.00244141 102.078C0.00244141 101.825 0.102742 101.582 0.281344 101.403C0.459946 101.224 0.702272 101.123 0.955188 101.122H64.189C65.7808 94.5592 69.5252 88.7185 74.8245 84.5321C80.1238 80.3457 86.6727 78.055 93.426 78.0255C95.8302 70.2486 100.441 63.3373 106.699 58.1312C112.956 52.9251 120.591 49.6482 128.675 48.6988C136.76 47.7493 144.946 49.1681 152.239 52.7827C159.533 56.3973 165.62 62.0522 169.76 69.0604C170.7 68.9872 171.622 68.9503 172.508 68.9503C181.501 68.9747 190.152 72.394 196.732 78.5239C203.312 84.6539 207.334 93.0423 207.993 102.011C208.002 102.136 207.986 102.262 207.947 102.381C207.907 102.499 207.844 102.609 207.762 102.704C207.679 102.799 207.579 102.876 207.467 102.932C207.355 102.988 207.233 103.022 207.107 103.031C207.085 103.032 207.062 103.033 207.04 103.033Z" fill="#22222B"/>
<path d="M195.674 115.281H39.0082C38.7549 115.281 38.5119 115.181 38.3328 115.001C38.1536 114.822 38.053 114.579 38.053 114.326C38.053 114.073 38.1536 113.83 38.3328 113.65C38.5119 113.471 38.7549 113.371 39.0082 113.371H195.674C195.927 113.371 196.17 113.471 196.349 113.65C196.528 113.83 196.629 114.073 196.629 114.326C196.629 114.579 196.528 114.822 196.349 115.001C196.17 115.181 195.927 115.281 195.674 115.281Z" fill="#22222B"/>
<path d="M77.2195 129.133H24.6793C24.5536 129.133 24.4291 129.109 24.3129 129.061C24.1967 129.013 24.0911 128.943 24.0021 128.854C23.9131 128.765 23.8426 128.66 23.7944 128.544C23.7462 128.428 23.7214 128.303 23.7214 128.177C23.7214 128.052 23.7462 127.927 23.7944 127.811C23.8426 127.695 23.9131 127.59 24.0021 127.501C24.0911 127.412 24.1967 127.342 24.3129 127.294C24.4291 127.246 24.5536 127.222 24.6793 127.222H77.2195C77.4724 127.223 77.7147 127.324 77.8933 127.503C78.0719 127.682 78.1722 127.925 78.1722 128.177C78.1722 128.43 78.0719 128.673 77.8933 128.852C77.7147 129.031 77.4724 129.132 77.2195 129.133Z" fill="#22222B"/>
<path d="M126.342 315.004C126.342 353.841 85.6261 372.424 85.6261 372.424C85.6261 372.424 44.4925 353.841 43.6573 315.004C43.1663 292.176 62.1669 273.661 84.9996 273.661C90.4288 273.661 95.8048 274.731 100.821 276.808C105.837 278.886 110.394 281.931 114.233 285.77C118.072 289.609 121.117 294.167 123.195 299.183C125.273 304.199 126.342 309.575 126.342 315.004Z" fill="#22222B"/>
<path d="M99.4071 374.721H71.8452L68.5042 361.358H102.747L99.4071 374.721Z" fill="#17171D"/>
<path d="M98.4671 397.574H72.7847V410.958H98.4671V397.574Z" fill="#22222B"/>
<path d="M98.676 411.167H72.5759V397.365H98.676V411.167ZM72.9936 410.749H98.2584V397.783H72.9936V410.749Z" fill="#17171D"/>
<path d="M90.8905 376.297H80.3616L79.1533 374.398H92.0988L90.8905 376.297Z" fill="#17171D"/>
<path d="M72.4716 374.721H72.054V395.183H72.4716V374.721Z" fill="#17171D"/>
<path d="M99.1979 374.721H98.7803V395.183H99.1979V374.721Z" fill="#17171D"/>
<path d="M89.8119 361.131L89.5569 360.8C101.621 351.497 116.002 335.559 116.002 312.463C116.012 304.373 113.633 296.461 109.163 289.719C104.694 282.976 98.3335 277.703 90.8793 274.561L91.042 274.177C98.5718 277.351 104.997 282.677 109.512 289.488C114.026 296.299 116.429 304.291 116.42 312.463C116.42 335.729 101.95 351.771 89.8119 361.131Z" fill="#17171D"/>
<path d="M76.4484 361.131L76.1934 360.801C88.2575 351.497 102.639 335.559 102.639 312.463C102.642 304.428 100.291 296.568 95.8775 289.854C91.4637 283.14 85.1798 277.866 77.802 274.684L77.9676 274.3C85.4202 277.515 91.7679 282.842 96.2265 289.625C100.685 296.407 103.06 304.346 103.056 312.463C103.056 335.729 88.5867 351.771 76.4484 361.131Z" fill="#17171D"/>
<path d="M93.5503 361.131C81.412 351.771 66.9426 335.729 66.9426 312.463C66.9393 304.346 69.3137 296.406 73.7724 289.624C78.2311 282.842 84.5789 277.515 92.0316 274.3L92.1971 274.684C84.8193 277.866 78.5353 283.14 74.1214 289.854C69.7075 296.568 67.357 304.428 67.3602 312.463C67.3602 335.559 81.7412 351.497 93.8053 360.8L93.5503 361.131Z" fill="#17171D"/>
<path d="M80.1874 361.131C68.0491 351.771 53.5796 335.729 53.5796 312.463C53.566 304.259 55.9861 296.236 60.5336 289.408C65.0811 282.58 71.5517 277.255 79.1267 274.106L79.2877 274.491C71.7888 277.609 65.3832 282.88 60.8813 289.64C56.3795 296.399 53.9837 304.341 53.9972 312.463C53.9972 335.559 68.3782 351.497 80.4423 360.8L80.1874 361.131Z" fill="#17171D"/>
<path d="M85.2084 273.661H84.7908V361.358H85.2084V273.661Z" fill="#17171D"/>
<path d="M80.2948 394.54L72.6372 402.197L72.9324 402.493L80.59 394.835L80.2948 394.54Z" fill="#17171D"/>
<path d="M84.0174 394.412L72.6343 406.384L72.9369 406.672L84.32 394.7L84.0174 394.412Z" fill="#17171D"/>
<path d="M100.868 394.557H69.5483V398.315H100.868V394.557Z" fill="#22222B"/>
<path d="M101.077 398.524H69.3396V394.348H101.077V398.524ZM69.7572 398.106H100.66V394.766H69.7572V398.106Z" fill="#17171D"/>
<path d="M205.139 216.58C205.139 242.214 178.265 254.479 178.265 254.479C178.265 254.479 151.115 242.214 150.564 216.58C150.239 201.512 162.781 189.292 177.851 189.292C185.088 189.292 192.029 192.167 197.147 197.284C202.264 202.402 205.139 209.342 205.139 216.58Z" fill="#22222B"/>
<path d="M187.361 255.995H169.169L166.964 247.175H189.566L187.361 255.995Z" fill="#17171D"/>
<path d="M370.944 387.659C371.2 387.245 372.481 385.18 374.78 381.467L376.55 381.478L376.975 378.848L372.976 378.44C370.787 383.463 369.57 386.256 369.326 386.809C368.482 386.949 367.894 387.729 368.016 388.555C368.133 389.387 368.913 389.946 369.757 389.812C370.601 389.678 371.189 388.892 371.066 388.066C371.061 388.002 371.049 387.944 371.032 387.88C371.008 387.804 370.979 387.729 370.944 387.659Z" fill="#FFB7B7"/>
<path d="M381.318 395.172C381.37 395.09 381.429 395.02 381.487 394.951C381.411 393.822 381.009 388.177 380.293 378.016L383.734 378.347C383.792 388.299 383.821 393.827 383.827 394.933C384.432 395.573 384.403 396.586 383.763 397.191C383.227 397.698 382.412 397.767 381.795 397.366C381.056 396.889 380.841 395.911 381.318 395.172Z" fill="#FFB7B7"/>
<path d="M380.8 383.201C380.776 382.747 380.573 379.098 380.549 378.638C380.491 377.632 381.265 376.764 382.278 376.706C383.14 376.66 383.92 377.224 384.147 378.056C384.258 378.47 385.142 381.734 385.253 382.142C385.352 382.497 385.142 382.858 384.787 382.956C384.473 383.044 381.952 383.725 381.638 383.812C381.446 383.864 381.236 383.824 381.073 383.707C380.91 383.591 380.811 383.405 380.8 383.201Z" fill="#22222B"/>
<path d="M378.134 365.597C376.126 365.597 374.501 367.226 374.501 369.228C374.501 371.236 376.126 372.859 378.134 372.859C380.142 372.859 381.766 371.236 381.766 369.228C381.766 367.226 380.142 365.597 378.134 365.597Z" fill="#FFB7B7"/>
<path d="M379.047 372.161C378.844 371.975 378.716 371.725 378.681 371.451C378.675 371.376 378.675 371.294 378.681 371.218C378.727 370.782 378.978 370.386 378.919 369.926C378.902 369.81 378.861 369.699 378.791 369.606C378.256 368.885 376.987 369.932 376.48 369.275C376.166 368.879 376.533 368.245 376.294 367.796C375.974 367.203 375.037 367.494 374.449 367.174C373.797 366.813 373.837 365.806 374.268 365.201C374.833 364.468 375.694 364.031 376.62 364.002C377.534 363.979 378.442 364.153 379.28 364.52C380.27 364.84 381.149 365.445 381.795 366.26C382.476 367.343 382.633 368.675 382.226 369.886C382.005 370.619 381.254 371.509 380.701 372.103C380.264 372.574 379.519 372.603 379.047 372.161Z" fill="#17171D"/>
<path d="M381.568 375.152C381.219 374.92 380.841 374.733 380.445 374.6C380.445 374.536 380.445 374.221 380.445 373.645H377.633C377.633 374.181 377.633 374.472 377.633 374.53C375.73 375.059 374.321 376.666 374.059 378.627C373.867 380.047 372.342 391.401 372.15 392.821C372.12 393.001 372.173 393.182 372.283 393.327C372.394 393.467 372.557 393.554 372.737 393.571C374.076 393.746 375.369 394.188 376.533 394.875C377.377 395.341 378.332 395.585 379.298 395.579C380.067 395.573 380.829 395.44 381.551 395.178C381.801 395.085 381.97 394.852 381.982 394.584C382.052 393.059 382.453 385.191 383.629 380.396C384.095 378.47 383.356 376.456 381.761 375.286C381.662 375.216 381.586 375.164 381.568 375.152Z" fill="#22222B"/>
<path d="M371.777 379.418C372.103 379.092 374.687 376.508 375.013 376.182C375.729 375.467 376.888 375.467 377.604 376.182C378.215 376.794 378.314 377.754 377.848 378.475C377.616 378.83 375.776 381.67 375.543 382.025C375.345 382.334 374.932 382.421 374.623 382.217C374.35 382.043 372.161 380.623 371.887 380.442C371.719 380.338 371.608 380.157 371.585 379.954C371.567 379.756 371.637 379.558 371.777 379.418Z" fill="#22222B"/>
<path d="M186.741 271.08H169.789V279.913H186.741V271.08Z" fill="#22222B"/>
<path d="M186.878 280.051H169.651V270.942H186.878V280.051ZM169.927 279.776H186.603V271.217H169.927V279.776Z" fill="#17171D"/>
<path d="M181.739 257.035H174.79L173.992 255.782H182.537L181.739 257.035Z" fill="#17171D"/>
<path d="M169.582 255.995H169.307V269.501H169.582V255.995Z" fill="#17171D"/>
<path d="M187.223 255.995H186.947V269.501H187.223V255.995Z" fill="#17171D"/>
<path d="M181.028 247.026L180.859 246.807C188.822 240.667 198.314 230.147 198.314 214.902C198.321 209.563 196.75 204.341 193.8 199.89C190.851 195.44 186.652 191.96 181.732 189.886L181.84 189.632C186.81 191.727 191.05 195.242 194.03 199.738C197.01 204.233 198.596 209.509 198.59 214.902C198.59 230.259 189.039 240.847 181.028 247.026Z" fill="#17171D"/>
<path d="M172.207 247.026L172.039 246.807C180.002 240.667 189.494 230.147 189.494 214.902C189.496 209.599 187.945 204.411 185.031 199.979C182.118 195.548 177.97 192.067 173.101 189.966L173.21 189.713C178.129 191.835 182.319 195.352 185.262 199.828C188.205 204.305 189.772 209.545 189.77 214.902C189.77 230.259 180.219 240.847 172.207 247.026Z" fill="#17171D"/>
<path d="M183.495 247.026C175.484 240.847 165.933 230.259 165.933 214.902C165.931 209.545 167.498 204.304 170.441 199.828C173.384 195.351 177.574 191.835 182.493 189.713L182.602 189.966C177.732 192.067 173.585 195.548 170.671 199.979C167.758 204.411 166.207 209.599 166.209 214.902C166.209 230.147 175.701 240.667 183.664 246.807L183.495 247.026Z" fill="#17171D"/>
<path d="M174.675 247.026C166.663 240.847 157.113 230.259 157.113 214.902C157.104 209.487 158.701 204.192 161.703 199.685C164.704 195.179 168.975 191.663 173.975 189.585L174.081 189.839C169.132 191.897 164.904 195.377 161.932 199.838C158.961 204.299 157.38 209.542 157.388 214.902C157.388 230.147 166.881 240.667 174.843 246.807L174.675 247.026Z" fill="#17171D"/>
<path d="M177.989 189.292H177.714V247.175H177.989V189.292Z" fill="#17171D"/>
<path d="M174.746 269.077L169.692 274.131L169.887 274.326L174.941 269.272L174.746 269.077Z" fill="#17171D"/>
<path d="M177.203 268.993L169.69 276.895L169.889 277.084L177.403 269.182L177.203 268.993Z" fill="#17171D"/>
<path d="M188.325 269.088H167.653V271.569H188.325V269.088Z" fill="#22222B"/>
<path d="M188.463 271.706H167.515V268.95H188.463V271.706ZM167.791 271.431H188.187V269.226H167.791V271.431Z" fill="#17171D"/>
<path d="M433.597 251.626C433.77 251.626 433.936 251.56 434.063 251.442C434.19 251.324 434.267 251.162 434.279 250.989C434.727 244.906 437.455 239.216 441.918 235.059C446.381 230.901 452.249 228.582 458.348 228.565C459.078 228.565 459.845 228.603 460.628 228.676C460.758 228.688 460.89 228.662 461.007 228.602C461.123 228.541 461.22 228.449 461.286 228.334C464.087 223.43 468.271 219.46 473.316 216.919C478.36 214.377 484.04 213.378 489.649 214.045C495.258 214.712 500.545 217.016 504.853 220.669C509.16 224.323 512.296 229.164 513.87 234.588C513.911 234.734 514 234.861 514.122 234.951C514.244 235.04 514.392 235.086 514.543 235.082L514.725 235.077C514.82 235.074 514.914 235.07 515.01 235.07C519.636 235.085 524.118 236.681 527.713 239.593C531.308 242.506 533.799 246.56 534.772 251.083C534.805 251.236 534.889 251.374 535.011 251.473C535.133 251.572 535.285 251.626 535.442 251.626H581.315C581.405 251.626 581.495 251.609 581.578 251.574C581.661 251.54 581.737 251.49 581.801 251.426C581.865 251.363 581.915 251.287 581.95 251.204C581.984 251.121 582.002 251.031 582.002 250.941C582.002 250.851 581.984 250.762 581.95 250.679C581.915 250.596 581.865 250.52 581.801 250.456C581.737 250.393 581.661 250.342 581.578 250.308C581.495 250.274 581.405 250.256 581.315 250.257H535.99C534.849 245.552 532.165 241.366 528.367 238.365C524.568 235.364 519.874 233.722 515.033 233.701C513.31 228.127 510.005 223.173 505.52 219.441C501.034 215.709 495.562 213.361 489.767 212.68C483.972 211.999 478.104 213.016 472.877 215.607C467.649 218.198 463.286 222.252 460.318 227.275C459.644 227.222 458.984 227.196 458.348 227.196C451.903 227.214 445.701 229.664 440.985 234.058C436.269 238.452 433.386 244.465 432.913 250.893C432.907 250.983 432.918 251.073 432.946 251.158C432.975 251.244 433.02 251.323 433.079 251.39C433.138 251.458 433.21 251.514 433.29 251.554C433.371 251.594 433.458 251.618 433.548 251.624C433.564 251.625 433.581 251.626 433.597 251.626Z" fill="#22222B"/>
<path d="M441.744 260.405H554.039C554.221 260.405 554.395 260.333 554.523 260.205C554.652 260.076 554.724 259.902 554.724 259.721C554.724 259.539 554.652 259.365 554.523 259.237C554.395 259.108 554.221 259.036 554.039 259.036H441.744C441.562 259.036 441.388 259.108 441.259 259.237C441.131 259.365 441.059 259.539 441.059 259.721C441.059 259.902 441.131 260.076 441.259 260.205C441.388 260.333 441.562 260.405 441.744 260.405Z" fill="#22222B"/>
<path d="M526.65 270.334H564.31C564.491 270.333 564.665 270.261 564.793 270.133C564.921 270.004 564.993 269.831 564.993 269.649C564.993 269.468 564.921 269.294 564.793 269.166C564.665 269.037 564.491 268.965 564.31 268.965H526.65C526.56 268.965 526.471 268.982 526.388 269.017C526.305 269.051 526.229 269.102 526.166 269.165C526.102 269.229 526.052 269.304 526.017 269.387C525.983 269.47 525.965 269.559 525.965 269.649C525.965 269.739 525.983 269.828 526.017 269.911C526.052 269.994 526.102 270.07 526.166 270.133C526.229 270.197 526.305 270.247 526.388 270.282C526.471 270.316 526.56 270.334 526.65 270.334Z" fill="#22222B"/>
<path d="M351.653 435.551H349.399L348.326 426.858H351.653V435.551Z" fill="#9F616A"/>
<path d="M352.228 437.736H344.96V437.644C344.961 436.894 345.259 436.175 345.79 435.645C346.32 435.114 347.039 434.816 347.789 434.815H352.228V437.736Z" fill="#17171D"/>
<path d="M380.718 431.28L378.786 432.441L373.389 425.541L376.241 423.828L380.718 431.28Z" fill="#9F616A"/>
<path d="M376.106 436.6L376.059 436.521C375.674 435.878 375.559 435.108 375.74 434.38C375.922 433.652 376.385 433.026 377.027 432.639L380.832 430.353L382.336 432.857L376.106 436.6Z" fill="#17171D"/>
<path d="M352.239 433.757L352.2 433.757C351.104 433.753 350.008 433.69 348.918 433.568C348.503 433.527 348.053 433.482 347.51 433.438L347.491 433.434C347.121 433.324 347.111 429.851 347.268 417.962C347.348 411.873 347.439 404.971 347.331 400.576L347.33 400.532L347.362 400.504C349.323 398.785 351.662 397.555 354.189 396.914C356.716 396.272 359.359 396.238 361.901 396.813L361.941 396.821L361.962 396.856C364.177 400.604 367.522 406.003 370.756 411.224C378.181 423.21 380.305 426.735 380.072 427.001L380.044 427.022C379.537 427.276 379.156 427.471 378.833 427.637C377.552 428.301 376.235 428.894 374.89 429.415L374.831 429.44L374.787 429.392C367.253 421.137 360.984 411.915 357.106 403.39C356.653 406.3 356.103 410.101 355.521 414.116C353.85 425.663 352.721 433.266 352.266 433.729L352.239 433.757Z" fill="#17171D"/>
<path d="M496.283 133.133C496.283 258.197 365.167 318.039 365.167 318.039C365.167 318.039 232.707 258.197 230.018 133.133C228.437 59.6225 289.623 0 363.15 0C436.677 0 496.283 59.6055 496.283 133.133Z" fill="url(#paint0_linear_493_2291)"/>
<path d="M367.98 434.568H365.216L363.901 423.908H367.98V434.568Z" fill="#FFB7B7"/>
<path d="M363.242 433.779H368.572V437.134H359.886C359.886 436.694 359.973 436.257 360.141 435.85C360.31 435.443 360.557 435.073 360.869 434.761C361.181 434.45 361.551 434.203 361.958 434.034C362.365 433.865 362.801 433.779 363.242 433.779Z" fill="#17171D"/>
<path d="M378.349 434.568H375.586L374.271 423.908H378.35L378.349 434.568Z" fill="#FFB7B7"/>
<path d="M373.612 433.779H378.942V437.134H370.256C370.256 436.244 370.609 435.391 371.239 434.761C371.868 434.132 372.722 433.779 373.612 433.779Z" fill="#17171D"/>
<path d="M367.849 429.198L364.807 429.053C364.548 429.041 364.303 428.93 364.123 428.742C363.943 428.555 363.842 428.306 363.841 428.047L363.628 397.263C363.627 397.117 363.658 396.972 363.718 396.839C363.778 396.706 363.866 396.587 363.976 396.491C364.086 396.395 364.216 396.324 364.356 396.283C364.496 396.242 364.644 396.231 364.788 396.252L376.96 398.019C377.201 398.053 377.421 398.172 377.58 398.355C377.74 398.538 377.828 398.773 377.829 399.015L379.394 427.54C379.395 427.674 379.37 427.806 379.319 427.93C379.269 428.054 379.194 428.167 379.1 428.262C379.005 428.357 378.893 428.432 378.77 428.484C378.646 428.535 378.514 428.562 378.38 428.562H375.1C374.858 428.563 374.624 428.477 374.44 428.32C374.256 428.162 374.134 427.944 374.098 427.705C374.098 427.705 371.62 406.309 371.28 406.322C370.938 406.328 368.905 428.305 368.905 428.305C368.874 428.551 368.755 428.778 368.57 428.943C368.384 429.107 368.145 429.199 367.897 429.199C367.881 429.199 367.865 429.199 367.849 429.198Z" fill="#17171D"/>
<path d="M409.545 325.435H320.79L310.032 282.403H420.303L409.545 325.435Z" fill="#17171D"/>
<path d="M406.519 399.029H323.815V442.128H406.519V399.029Z" fill="#22222B"/>
<path d="M407.191 442.8H323.143V398.356H407.191V442.8ZM324.488 441.455H405.847V399.701H324.488V441.455Z" fill="#17171D"/>
<path d="M382.12 330.51H348.215L344.323 324.395H386.011L382.12 330.51Z" fill="#17171D"/>
<path d="M322.807 325.435H321.462V391.329H322.807V325.435Z" fill="#17171D"/>
<path d="M408.872 325.435H407.528V391.329H408.872V325.435Z" fill="#17171D"/>
<path d="M378.647 281.674L377.826 280.609C416.675 250.65 462.985 199.325 462.985 124.949C463.016 98.8994 455.355 73.4207 440.963 51.708C426.571 29.9954 406.088 13.0154 382.084 2.8977L382.608 1.6593C406.856 11.8797 427.546 29.0319 442.085 50.9649C456.623 72.8979 464.361 98.6351 464.33 124.949C464.33 199.871 417.735 251.53 378.647 281.674Z" fill="#17171D"/>
<path d="M335.614 281.674L334.792 280.609C373.642 250.65 419.953 199.325 419.953 124.949C419.963 99.0746 412.394 73.764 398.18 52.1435C383.967 30.523 363.731 13.5397 339.973 3.29141L340.506 2.05695C364.505 12.4092 384.946 29.5649 399.304 51.4048C413.662 73.2447 421.308 98.812 421.297 124.949C421.297 199.872 374.702 251.531 335.614 281.674Z" fill="#17171D"/>
<path d="M390.686 281.674C351.598 251.531 305.003 199.872 305.003 124.949C304.992 98.8118 312.638 73.2442 326.996 51.4042C341.355 29.5642 361.796 12.4086 385.795 2.05658L386.329 3.29103C362.57 13.5392 342.334 30.5224 328.12 52.143C313.906 73.7636 306.337 99.0743 306.348 124.949C306.348 199.325 352.658 250.65 391.507 280.609L390.686 281.674Z" fill="#17171D"/>
<path d="M347.654 281.674C308.565 251.531 261.97 199.872 261.97 124.949C261.926 98.5314 269.719 72.6946 284.364 50.7075C299.008 28.7205 319.845 11.5713 344.238 1.42987L344.756 2.67089C320.608 12.7104 299.98 29.6872 285.483 51.4534C270.986 73.2196 263.271 98.7968 263.315 124.949C263.315 199.326 309.625 250.65 348.475 280.609L347.654 281.674Z" fill="#17171D"/>
<path d="M363.823 0H362.478V282.403H363.823V0Z" fill="#17171D"/>
<path d="M347.999 389.257L323.34 413.916L324.291 414.867L348.95 390.208L347.999 389.257Z" fill="#17171D"/>
<path d="M359.987 388.847L323.331 427.399L324.305 428.326L360.961 389.773L359.987 388.847Z" fill="#17171D"/>
<path d="M414.252 389.312H313.394V401.415H414.252V389.312Z" fill="#22222B"/>
<path d="M414.924 402.087H312.721V388.64H414.924V402.087ZM314.066 400.743H413.579V389.984H314.066V400.743Z" fill="#17171D"/>
<path d="M295.393 328.278C295.22 328.278 295.053 328.212 294.927 328.094C294.8 327.976 294.723 327.814 294.711 327.641C294.263 321.558 291.535 315.869 287.072 311.711C282.609 307.553 276.741 305.234 270.641 305.218C269.911 305.218 269.145 305.255 268.362 305.328C268.231 305.34 268.1 305.315 267.983 305.254C267.866 305.194 267.769 305.101 267.704 304.987C264.902 300.082 260.718 296.112 255.674 293.571C250.63 291.03 244.949 290.03 239.341 290.697C233.732 291.364 228.444 293.668 224.137 297.322C219.83 300.975 216.694 305.816 215.12 311.241C215.079 311.386 214.99 311.513 214.868 311.603C214.746 311.692 214.598 311.739 214.447 311.735L214.265 311.729C214.17 311.726 214.075 311.723 213.98 311.723C209.354 311.737 204.871 313.333 201.277 316.245C197.682 319.158 195.191 323.212 194.218 327.735C194.185 327.888 194.101 328.026 193.979 328.125C193.857 328.224 193.705 328.278 193.548 328.278H147.674C147.584 328.278 147.495 328.261 147.412 328.227C147.328 328.192 147.253 328.142 147.189 328.078C147.125 328.015 147.074 327.939 147.04 327.856C147.005 327.773 146.988 327.683 146.988 327.593C146.988 327.503 147.005 327.414 147.04 327.331C147.074 327.248 147.125 327.172 147.189 327.108C147.253 327.045 147.328 326.994 147.412 326.96C147.495 326.926 147.584 326.908 147.674 326.909H193C194.141 322.204 196.825 318.018 200.623 315.017C204.421 312.016 209.116 310.374 213.956 310.353C215.68 304.779 218.985 299.825 223.47 296.093C227.955 292.361 233.428 290.013 239.223 289.332C245.018 288.651 250.885 289.668 256.113 292.259C261.341 294.85 265.704 298.904 268.672 303.927C269.345 303.875 270.006 303.848 270.641 303.848C277.087 303.866 283.289 306.317 288.005 310.71C292.721 315.104 295.604 321.117 296.077 327.545C296.083 327.635 296.072 327.725 296.043 327.81C296.015 327.896 295.97 327.975 295.911 328.043C295.852 328.11 295.78 328.166 295.7 328.206C295.619 328.246 295.531 328.27 295.442 328.276C295.425 328.278 295.409 328.278 295.393 328.278Z" fill="#22222B"/>
<path d="M287.246 337.058H174.951C174.86 337.058 174.771 337.04 174.688 337.006C174.605 336.972 174.529 336.921 174.465 336.858C174.401 336.794 174.351 336.719 174.316 336.635C174.281 336.552 174.264 336.463 174.264 336.373C174.264 336.283 174.281 336.194 174.316 336.11C174.351 336.027 174.401 335.952 174.465 335.888C174.529 335.824 174.605 335.774 174.688 335.74C174.771 335.705 174.86 335.688 174.951 335.688H287.246C287.428 335.688 287.602 335.76 287.73 335.889C287.859 336.017 287.931 336.191 287.931 336.373C287.931 336.554 287.859 336.729 287.73 336.857C287.602 336.985 287.428 337.058 287.246 337.058Z" fill="#22222B"/>
<path d="M202.34 346.986H164.68C164.589 346.986 164.5 346.969 164.417 346.935C164.334 346.9 164.258 346.85 164.194 346.786C164.13 346.723 164.08 346.647 164.045 346.564C164.01 346.481 163.993 346.392 163.993 346.301C163.993 346.211 164.01 346.122 164.045 346.039C164.08 345.956 164.13 345.88 164.194 345.816C164.258 345.753 164.334 345.702 164.417 345.668C164.5 345.634 164.589 345.616 164.68 345.617H202.34C202.43 345.616 202.519 345.634 202.602 345.668C202.686 345.702 202.761 345.753 202.825 345.816C202.889 345.88 202.94 345.956 202.974 346.039C203.009 346.122 203.027 346.211 203.027 346.301C203.027 346.392 203.009 346.481 202.974 346.564C202.94 346.647 202.889 346.723 202.825 346.786C202.761 346.85 202.686 346.9 202.602 346.935C202.519 346.969 202.43 346.986 202.34 346.986Z" fill="#22222B"/>
</g>
<defs>
<linearGradient id="paint0_linear_493_2291" x1="363.135" y1="0" x2="363.135" y2="318.039" gradientUnits="userSpaceOnUse">
<stop stop-color="#BBC3F2"/>
<stop offset="1" stop-color="#8991B3"/>
</linearGradient>
<clipPath id="clip0_493_2291">
<rect width="582" height="442.8" fill="white"/>
</clipPath>
</defs>
</svg>
