<svg width="311" height="358" viewBox="0 0 311 358" fill="none" xmlns="http://www.w3.org/2000/svg">
<g clip-path="url(#clip0_241_1846)">
<path d="M132.862 49.4345C129.518 31.5382 134.782 11.1781 149.415 0.345459C148.585 20.1265 154.78 39.5634 166.902 55.2171C171.598 61.2371 177.449 67.4438 177.268 75.0772C177.155 79.8268 174.586 84.2516 171.201 87.5851C167.816 90.9186 163.646 93.322 159.525 95.6879L158.884 96.6856C146.806 83.0625 136.206 67.3308 132.862 49.4345Z" fill="#19191F"/>
<path d="M149.681 0.619067C143.534 14.3775 141.878 29.7232 144.948 44.4764C145.553 47.6642 146.656 50.7368 148.218 53.581C149.828 56.3024 152.138 58.543 154.907 60.0698C157.461 61.5453 160.244 62.7588 162.394 64.8293C163.479 65.9055 164.324 67.1989 164.874 68.6246C165.424 70.0504 165.667 71.5763 165.586 73.1024C165.483 76.9101 164.018 80.4537 162.465 83.8693C160.74 87.6617 158.889 91.5734 159.001 95.837C159.015 96.3536 158.212 96.3445 158.199 95.8286C158.004 88.4106 163.367 82.4531 164.562 75.3352C165.12 72.0139 164.68 68.5044 162.345 65.9299C160.303 63.6786 157.434 62.4247 154.836 60.9531C152.113 59.5032 149.786 57.4086 148.058 54.8521C146.357 52.0966 145.137 49.0717 144.451 45.9069C142.792 38.8066 142.26 31.4896 142.874 24.224C143.529 15.928 145.599 7.8051 148.993 0.206833C149.203 -0.263364 149.89 0.151934 149.681 0.619056L149.681 0.619067Z" fill="#BBC3F2"/>
<path d="M143.68 39.7842C141.135 39.9633 138.609 39.2319 136.553 37.7205C134.497 36.2091 133.046 34.0163 132.458 31.5335C132.34 31.0307 133.116 30.8248 133.234 31.3283C133.777 33.6413 135.129 35.6838 137.046 37.0873C138.964 38.4907 141.319 39.1627 143.688 38.9818C144.203 38.9431 144.192 39.7457 143.68 39.7842Z" fill="#BBC3F2"/>
<path d="M153.514 59.4922C156.969 55.585 158.825 50.519 158.711 45.3045C158.699 44.7878 159.501 44.7968 159.513 45.3128C159.622 50.7394 157.68 56.0074 154.076 60.0654C153.732 60.452 153.172 59.8766 153.514 59.4922Z" fill="#BBC3F2"/>
<path d="M144.469 16.4262C145.469 16.5621 146.486 16.4477 147.43 16.0932C148.374 15.7388 149.215 15.1554 149.878 14.3955C150.217 14.0047 150.776 14.5806 150.44 14.9688C149.703 15.805 148.774 16.4481 147.731 16.842C146.689 17.236 145.566 17.3687 144.461 17.2286C144.356 17.2241 144.256 17.1797 144.182 17.1044C144.109 17.0291 144.066 16.9286 144.064 16.8232C144.066 16.717 144.109 16.6157 144.185 16.5413C144.261 16.467 144.363 16.4256 144.469 16.4262Z" fill="#BBC3F2"/>
<path d="M209.253 15.1484C209.048 15.3984 208.843 15.6484 208.641 15.9049C205.907 19.2801 203.453 22.8717 201.302 26.6443C201.131 26.9333 200.962 27.2288 200.799 27.5222C195.713 36.6665 192.368 46.6757 190.936 57.041C190.369 61.1661 190.118 65.3283 190.183 69.4916C190.274 75.2413 190.829 81.4682 189.067 86.7562C188.889 87.31 188.677 87.8522 188.432 88.3798L160.151 97.3906C160.076 97.3788 160.003 97.3736 159.928 97.3619L158.816 97.7733C158.797 97.5588 158.783 97.336 158.765 97.1215C158.753 96.9971 158.749 96.8707 158.737 96.7464C158.732 96.6628 158.727 96.5791 158.717 96.504C158.715 96.4763 158.714 96.4483 158.714 96.4269C158.704 96.3519 158.703 96.2811 158.695 96.2125C158.611 94.967 158.533 93.7195 158.469 92.4679C158.467 92.4614 158.467 92.4614 158.471 92.453C157.986 82.92 158.292 73.2628 160.054 63.959C160.107 63.6791 160.158 63.3929 160.224 63.1088C161.041 58.9195 162.2 54.8041 163.688 50.8036C164.51 48.6156 165.442 46.4707 166.481 44.377C169.175 38.9724 172.703 34.0252 176.935 29.7168C185.372 21.1294 196.462 15.3359 208.344 15.1534C208.649 15.149 208.946 15.1464 209.253 15.1484Z" fill="#19191F"/>
<path d="M209.303 15.5276C196.111 22.8117 185.55 34.0673 179.119 47.6956C177.683 50.6049 176.714 53.7224 176.248 56.9335C175.895 60.076 176.391 63.2557 177.683 66.1421C178.833 68.8576 180.324 71.502 180.795 74.4498C181.013 75.9624 180.909 77.504 180.49 78.9735C180.071 80.4431 179.346 81.8075 178.362 82.9771C175.988 85.9554 172.684 87.9028 169.388 89.6949C165.728 91.6846 161.895 93.6934 159.417 97.165C159.117 97.5856 158.482 97.0953 158.781 96.6752C163.092 90.6352 170.961 89.1074 176.201 84.1436C178.646 81.8274 180.407 78.7604 180.093 75.2989C179.818 72.272 178.282 69.5438 177.094 66.8044C175.792 64.0071 175.195 60.9337 175.355 57.8526C175.656 54.6282 176.503 51.4785 177.861 48.5384C180.811 41.8705 184.792 35.708 189.657 30.2766C195.174 24.047 201.717 18.8072 209.002 14.7839C209.453 14.5351 209.751 15.2804 209.303 15.5276Z" fill="#BBC3F2"/>
<path d="M180.932 43.1854C178.792 41.7961 177.215 39.6912 176.484 37.2468C175.752 34.8024 175.914 32.1776 176.939 29.8411C177.148 29.3691 177.891 29.6718 177.682 30.1444C176.723 32.3184 176.573 34.7634 177.259 37.0383C177.945 39.3131 179.421 41.2679 181.421 42.5499C181.856 42.8289 181.364 43.4629 180.932 43.1854Z" fill="#BBC3F2"/>
<path d="M176.918 64.8421C182.029 63.8027 186.561 60.875 189.609 56.6428C189.911 56.2232 190.546 56.7135 190.245 57.1326C187.064 61.5308 182.342 64.5679 177.021 65.6378C176.514 65.7395 176.414 64.9432 176.918 64.8421V64.8421Z" fill="#BBC3F2"/>
<path d="M195.625 25.0109C196.341 25.721 197.222 26.2421 198.19 26.5275C199.157 26.8129 200.18 26.8536 201.166 26.646C201.672 26.538 201.772 27.3344 201.27 27.4417C200.178 27.6661 199.049 27.6197 197.979 27.3068C196.91 26.9938 195.934 26.4238 195.135 25.6464C195.054 25.5794 195.001 25.484 194.988 25.3795C194.974 25.275 195.001 25.1692 195.062 25.0837C195.128 24.9999 195.223 24.9452 195.329 24.9316C195.434 24.9179 195.541 24.9464 195.625 25.0108V25.0109Z" fill="#BBC3F2"/>
<path d="M30.4747 317.408C47.3054 317.408 60.9494 303.764 60.9494 286.933C60.9494 270.102 47.3054 256.458 30.4747 256.458C13.644 256.458 0 270.102 0 286.933C0 303.764 13.644 317.408 30.4747 317.408Z" fill="#BBC3F2"/>
<path d="M299.771 181.182L78.9257 282.577C75.7822 284.016 72.1962 284.149 68.9545 282.947C65.7129 281.746 63.0802 279.307 61.6342 276.167L7.13492 157.463C5.696 154.319 5.56275 150.734 6.76441 147.492C7.96607 144.25 10.4045 141.618 13.5448 140.171L234.39 38.777C237.534 37.3381 241.12 37.2048 244.361 38.4065C247.603 39.6082 250.236 42.0466 251.682 45.1869L306.181 163.891C307.62 167.034 307.753 170.62 306.552 173.862C305.35 177.104 302.911 179.736 299.771 181.182Z" fill="#22222B"/>
<path d="M17.2179 148.172C16.1977 148.642 15.4055 149.497 15.0152 150.55C14.6248 151.604 14.6681 152.768 15.1355 153.79L69.6348 272.494C70.1046 273.514 70.9598 274.306 72.0129 274.696C73.066 275.087 74.231 275.043 75.2522 274.576L296.098 173.181C297.118 172.712 297.91 171.856 298.3 170.803C298.691 169.75 298.647 168.585 298.18 167.564L243.681 48.8602C243.211 47.84 242.356 47.0479 241.303 46.6575C240.249 46.2671 239.084 46.3104 238.063 46.7779L17.2179 148.172Z" fill="#17171D"/>
<path d="M299.771 181.182L78.9257 282.577C75.7822 284.016 72.1962 284.149 68.9545 282.947C65.7129 281.746 63.0802 279.307 61.6342 276.167L7.13492 157.463C5.696 154.319 5.56275 150.734 6.76441 147.492C7.96607 144.25 10.4045 141.618 13.5448 140.171L234.39 38.777C237.534 37.3381 241.12 37.2048 244.361 38.4065C247.603 39.6082 250.236 42.0466 251.682 45.1869L306.181 163.891C307.62 167.034 307.753 170.62 306.552 173.862C305.35 177.104 302.911 179.736 299.771 181.182ZM14.1098 141.402C11.2957 142.698 9.11055 145.057 8.03371 147.962C6.95687 150.867 7.07631 154.081 8.36581 156.898L62.865 275.602C64.1609 278.416 66.5201 280.601 69.4251 281.678C72.3301 282.755 75.5436 282.635 78.3606 281.346L299.206 179.951C302.02 178.655 304.205 176.296 305.282 173.391C306.359 170.486 306.24 167.273 304.95 164.456L250.451 45.752C249.155 42.9379 246.796 40.7527 243.891 39.6759C240.986 38.599 237.772 38.7184 234.955 40.0079L14.1098 141.402Z" fill="#22222B"/>
<path d="M244.587 127.316L69.1389 207.868C67.7258 208.514 66.1477 208.709 64.6199 208.425C63.0922 208.141 61.6893 207.393 60.6027 206.282L9.27009 153.64C8.42821 152.777 7.8059 151.724 7.45547 150.57C7.10504 149.416 7.03673 148.195 7.25628 147.009C7.47583 145.823 7.97684 144.708 8.71717 143.756C9.4575 142.804 10.4155 142.044 11.5107 141.539L236.358 37.8883C237.439 37.3903 238.623 37.1555 239.812 37.2031C241.001 37.2507 242.162 37.5793 243.2 38.1621C244.237 38.7448 245.122 39.5651 245.782 40.5557C246.441 41.5463 246.857 42.6791 246.994 43.8612L247.024 43.8605L248.975 120.278C249.014 121.752 248.618 123.205 247.838 124.457C247.058 125.708 245.928 126.702 244.587 127.316ZM236.933 39.1148L12.0775 142.769C11.1792 143.183 10.3935 143.807 9.78625 144.587C9.17903 145.368 8.76812 146.283 8.58804 147.256C8.40796 148.228 8.46398 149.23 8.75139 150.176C9.0388 151.122 9.54921 151.986 10.2397 152.694L61.5723 205.336C62.4634 206.247 63.6141 206.861 64.8672 207.094C66.1203 207.327 67.4148 207.167 68.5738 206.637L244.022 126.085C245.122 125.582 246.049 124.766 246.689 123.74C247.328 122.713 247.653 121.522 247.621 120.313L245.688 44.5721L245.958 44.5654L245.688 44.5721C245.661 43.55 245.382 42.5504 244.874 41.6629C244.367 40.7754 243.647 40.0277 242.779 39.4868C241.912 38.9459 240.923 38.6288 239.903 38.5639C238.883 38.499 237.862 38.6882 236.933 39.1148Z" fill="#22222B"/>
<path d="M134.565 236.289L79.9029 261.386C79.5062 261.568 79.0775 261.671 78.6411 261.688C78.2048 261.704 77.7694 261.635 77.3599 261.483C76.9504 261.332 76.5748 261.101 76.2546 260.804C75.9343 260.507 75.6757 260.15 75.4935 259.754C75.3113 259.357 75.2091 258.928 75.1928 258.492C75.1764 258.055 75.2462 257.62 75.3982 257.211C75.5501 256.801 75.7813 256.426 76.0784 256.106C76.3756 255.786 76.7328 255.528 77.1299 255.346L131.792 230.249C132.593 229.882 133.507 229.849 134.332 230.155C135.158 230.462 135.828 231.083 136.196 231.884C136.563 232.684 136.598 233.598 136.292 234.424C135.987 235.25 135.365 235.921 134.565 236.289Z" fill="#22222B"/>
<path d="M174.555 158.724C175.493 160.763 176.021 162.967 176.107 165.209C176.193 167.452 175.837 169.69 175.058 171.794C174.278 173.899 173.092 175.83 171.567 177.476C170.041 179.122 168.206 180.451 166.166 181.387C164.127 182.324 161.923 182.849 159.68 182.933C157.437 183.017 155.2 182.658 153.096 181.877C150.992 181.096 149.063 179.908 147.418 178.381C145.773 176.854 144.446 175.018 143.511 172.977" fill="#22222B"/>
<path d="M297.802 342.639H54.7925C51.3352 342.635 48.0207 341.26 45.5761 338.816C43.1314 336.371 41.7563 333.056 41.7524 329.599V198.982C41.7564 195.525 43.1315 192.211 45.5761 189.766C48.0208 187.321 51.3353 185.946 54.7925 185.942H297.802C301.259 185.946 304.573 187.321 307.018 189.766C309.463 192.211 310.838 195.525 310.842 198.982V329.599C310.838 333.056 309.463 336.371 307.018 338.816C304.574 341.26 301.259 342.635 297.802 342.639Z" fill="#22222B"/>
<path d="M54.7924 194.746C53.6693 194.747 52.5925 195.194 51.7983 195.988C51.0041 196.782 50.5574 197.859 50.5562 198.982V329.599C50.5574 330.722 51.0041 331.799 51.7983 332.593C52.5925 333.387 53.6693 333.834 54.7924 333.835H297.802C298.925 333.834 300.002 333.387 300.796 332.593C301.59 331.799 302.037 330.722 302.038 329.599V198.982C302.037 197.859 301.59 196.782 300.796 195.988C300.002 195.194 298.925 194.747 297.802 194.746H54.7924Z" fill="#BBC3F2"/>
<path d="M297.802 342.639H54.7925C51.3352 342.635 48.0207 341.26 45.5761 338.816C43.1314 336.371 41.7563 333.056 41.7524 329.599V198.982C41.7564 195.525 43.1315 192.211 45.5761 189.766C48.0208 187.321 51.3353 185.946 54.7925 185.942H297.802C301.259 185.946 304.573 187.321 307.018 189.766C309.463 192.211 310.838 195.525 310.842 198.982V329.599C310.838 333.056 309.463 336.371 307.018 338.816C304.574 341.26 301.259 342.635 297.802 342.639ZM54.7925 187.297C51.6943 187.3 48.7241 188.532 46.5334 190.723C44.3427 192.914 43.1104 195.884 43.1069 198.982V329.599C43.1104 332.697 44.3427 335.668 46.5334 337.858C48.7241 340.049 51.6943 341.281 54.7925 341.285H297.802C300.9 341.281 303.87 340.049 306.061 337.858C308.252 335.668 309.484 332.697 309.487 329.599V198.982C309.484 195.884 308.252 192.914 306.061 190.723C303.87 188.532 300.9 187.3 297.802 187.297H54.7925Z" fill="#22222B"/>
<path d="M270.126 270.661H77.0698C75.5159 270.659 74.0006 270.177 72.7306 269.281C71.4607 268.386 70.4981 267.12 69.9741 265.658L45.2878 196.399C44.883 195.263 44.7567 194.046 44.9197 192.852C45.0827 191.657 45.5301 190.518 46.2243 189.532C46.9186 188.547 47.8394 187.742 48.9094 187.185C49.9794 186.629 51.1672 186.338 52.3731 186.336L299.961 185.956C301.151 185.954 302.325 186.235 303.386 186.774C304.446 187.314 305.364 188.097 306.064 189.059C306.764 190.022 307.226 191.136 307.412 192.312C307.598 193.487 307.503 194.69 307.135 195.822L307.162 195.834L277.05 266.096C276.47 267.451 275.505 268.607 274.274 269.418C273.043 270.23 271.601 270.662 270.126 270.661ZM299.972 187.31L52.375 187.691C51.3859 187.692 50.4117 187.931 49.5341 188.387C48.6565 188.843 47.9012 189.503 47.3318 190.312C46.7624 191.121 46.3954 192.054 46.2617 193.034C46.1281 194.014 46.2316 195.012 46.5637 195.944L71.2498 265.203C71.6795 266.402 72.4691 267.441 73.5107 268.175C74.5523 268.91 75.7953 269.305 77.0698 269.306H270.126C271.335 269.307 272.518 268.953 273.528 268.287C274.538 267.622 275.329 266.674 275.805 265.562L305.651 195.923L305.899 196.029L305.651 195.923C306.053 194.983 306.216 193.958 306.126 192.939C306.035 191.921 305.692 190.941 305.13 190.088C304.567 189.234 303.801 188.534 302.901 188.049C302.001 187.564 300.994 187.31 299.972 187.31Z" fill="#22222B"/>
<path d="M124.671 323.789H64.5225C63.6412 323.789 62.7959 323.439 62.1728 322.815C61.5496 322.192 61.1995 321.347 61.1995 320.466C61.1995 319.584 61.5496 318.739 62.1728 318.116C62.7959 317.493 63.6412 317.143 64.5225 317.143H124.671C125.552 317.143 126.397 317.493 127.021 318.116C127.644 318.739 127.994 319.584 127.994 320.466C127.994 321.347 127.644 322.192 127.021 322.815C126.397 323.439 125.552 323.789 124.671 323.789Z" fill="#22222B"/>
<path d="M193.377 269.984C193.377 274.514 191.577 278.858 188.374 282.061C185.171 285.264 180.827 287.063 176.297 287.063C171.767 287.063 167.423 285.264 164.22 282.061C161.017 278.858 159.218 274.514 159.218 269.984" fill="#22222B"/>
<path d="M85.3291 73.6102C88.6952 73.6102 91.424 70.8814 91.424 67.5153C91.424 64.1491 88.6952 61.4203 85.3291 61.4203C81.9629 61.4203 79.2341 64.1491 79.2341 67.5153C79.2341 70.8814 81.9629 73.6102 85.3291 73.6102Z" fill="#BBC3F2"/>
<path d="M6.09494 219.889C9.46108 219.889 12.1899 217.16 12.1899 213.794C12.1899 210.428 9.46108 207.699 6.09494 207.699C2.7288 207.699 0 210.428 0 213.794C0 217.16 2.7288 219.889 6.09494 219.889Z" fill="#BBC3F2"/>
</g>
<defs>
<clipPath id="clip0_241_1846">
<rect width="311" height="358" fill="white"/>
</clipPath>
</defs>
</svg>
